<svg width="60" height="60" viewBox="0 0 40 48" fill="none" xmlns="http://www.w3.org/2000/svg"><path d="M19.513 24.958v-7.666h5.846L13.666 1.958 1.974 17.292H7.82v17.25m0 3.833v1.917m0 3.833v1.917m21.436-12.459c0 1.588-3.053 2.875-6.82 2.875-3.767 0-6.82-1.287-6.82-2.875m13.64 0c0-1.587-3.053-2.875-6.82-2.875-3.767 0-6.82 1.288-6.82 2.875m13.64 0v4.792m-13.64-4.792v4.792m13.64 0c0 1.587-3.053 2.875-6.82 2.875-3.767 0-6.82-1.288-6.82-2.875m13.64 0v4.792c0 1.587-3.053 2.875-6.82 2.875-3.767 0-6.82-1.288-6.82-2.875v-4.792m22.41-9.583v4.791m0-4.791V24m0 4.792c0 1.5-2.731 2.733-6.212 2.863m6.211 1.928c0 1.449-2.54 2.647-5.846 2.847m5.846-2.847v4.792c0 1.448-2.54 2.646-5.846 2.846M38.025 24c0 1.588-3.053 2.875-6.82 2.875-3.767 0-6.82-1.287-6.82-2.875m13.64 0c0-1.588-3.053-2.875-6.82-2.875-3.767 0-6.82 1.287-6.82 2.875m0 0v3.833" stroke="#FFF" stroke-width="2" stroke-linecap="round" stroke-linejoin="round"/></svg>