<svg width="60" height="60" viewBox="0 0 38 48" fill="none" xmlns="http://www.w3.org/2000/svg" data-prefix="i91zel2lf"><path d="m24.655 11.447.691-.723h-.001l-.69.723zm-12.33 5.249v1-1zm13.35 0v1-1zm0-9.392v1h1v-1h-1zm-12.324 0h-1v1h1v-1zm0-6.26v-1h-1v1h1zm12.324 0h1v-1h-1v1zM9.244 32.347v-1a1 1 0 0 0-1 1h1zm4.108 0h1a1 1 0 0 0-1-1v1zm0 5.217v1a1 1 0 0 0 1-1h-1zm-4.108 0h-1a1 1 0 0 0 1 1v-1zm15.405-5.217v-1a1 1 0 0 0-1 1h1zm4.109 0h1a1 1 0 0 0-1-1v1zm0 5.217v1a1 1 0 0 0 1-1h-1zm-4.109 0h-1a1 1 0 0 0 1 1v-1zM3.054 34.39a1 1 0 1 0-2 0h2zm-1 10.48h-1 1zm34.892-10.48a1 1 0 1 0-2 0h2zm-1 .045v1a1 1 0 0 0 .712-.299l-.712-.701zm1.027-1.044.712.702a1 1 0 0 0 .288-.702h-1zM1.027 24h-1 1zm0 9.391h-1a1 1 0 0 0 .287.702l.713-.702zm1.027 1.044-.713.701a1 1 0 0 0 .713.299v-1zm20.568-27.13V9.39h2V7.304h-2zm0 2.086c0 .964.395 1.876 1.343 2.78l1.38-1.448c-.629-.599-.723-1.012-.723-1.332h-2zm1.342 2.778c.581.557 1.021.98 1.33 1.4.292.395.409.713.409 1.04h2c0-.888-.346-1.614-.798-2.227-.434-.588-1.017-1.14-1.559-1.658l-1.382 1.445zm-9.559-4.865v2.087h2V7.304h-2zm0 2.087c0-.093.034-.053-.153.227-.176.264-.381.512-.677.912-.519.7-1.224 1.744-1.224 3.035h2c0-.58.322-1.158.83-1.845.218-.293.526-.68.735-.993.199-.297.49-.778.49-1.336h-2zm-2.054 4.174v3.13h2v-3.13h-2zm0 3.13c0 .814.318 1.598.89 2.178l1.425-1.403a1.103 1.103 0 0 1-.315-.774h-2zm.89 2.178c.57.58 1.35.91 2.164.91v-2c-.274 0-.54-.111-.74-.313l-1.425 1.403zm2.164.91h6.162v-2h-6.162v2zm6.162 0c.816 0 1.594-.33 2.166-.91l-1.426-1.403a1.038 1.038 0 0 1-.74.313v2zm2.166-.91c.57-.58.889-1.364.889-2.177h-2c0 .293-.115.571-.315.774l1.426 1.403zm.889-2.177v-2.087h-2v2.087h2zm-11.27-1h-1.028v2h1.027v-2zm-1.028 0c-.815 0-1.594.329-2.165.91l1.425 1.402c.2-.202.466-.312.74-.312v-2zm-2.165.91a3.104 3.104 0 0 0-.889 2.177h2c0-.294.115-.572.314-.775l-1.425-1.403zm-.889 2.177v3.13h2v-3.13h-2zm14.352-1.087h2.053v-2h-2.053v2zm2.053 0c.275 0 .541.11.74.312l1.426-1.403a3.038 3.038 0 0 0-2.166-.91v2zm.74.312c.2.203.315.481.315.775h2c0-.814-.318-1.598-.89-2.178l-1.425 1.403zm.315.775v3.13h2v-3.13h-2zM25.675 6.304H13.351v2h12.324v-2zm-11.324 1v-6.26h-2v6.26h2zm-1-5.26h12.324v-2H13.351v2zm11.324-1v6.26h2v-6.26h-2zM9.243 33.347h4.108v-2H9.243v2zm3.108-1v5.217h2v-5.217h-2zm1 4.217H9.243v2h4.108v-2zm-3.108 1v-5.217h-2v5.217h2zm14.405-4.217h4.109v-2h-4.109v2zm3.109-1v5.217h2v-5.217h-2zm1 4.217h-4.109v2h4.109v-2zm-3.109 1v-5.217h-2v5.217h2zm-12.297-2.13h11.297v-2H13.351v2zM1.054 34.39v10.48h2V34.39h-2zm0 10.48c0 .813.318 1.597.889 2.177l1.425-1.403a1.102 1.102 0 0 1-.314-.774h-2zm.889 2.177c.571.58 1.35.91 2.165.91v-2c-.274 0-.54-.111-.74-.313l-1.425 1.403zm2.165.91h29.784v-2H4.108v2zm29.784 0c.815 0 1.593-.33 2.165-.91l-1.425-1.403a1.038 1.038 0 0 1-.74.313v2zm2.165-.91c.57-.58.889-1.364.889-2.177h-2c0 .293-.115.571-.314.774l1.425 1.403zm.889-2.177V34.39h-2v10.48h2zm-8.19-9.435h7.19v-2h-7.19v2zm7.902-.299 1.027-1.043-1.425-1.403-1.027 1.043 1.425 1.403zm1.315-1.745V24h-2v9.391h2zm0-9.391a3.1 3.1 0 0 0-.89-2.177l-1.425 1.403c.2.202.315.48.315.774h2zm-.89-2.177a3.038 3.038 0 0 0-2.164-.91v2c.274 0 .54.11.74.313l1.425-1.403zm-2.164-.91H3.08v2h31.838v-2zm-31.838 0a3.04 3.04 0 0 0-2.165.91l1.425 1.403c.2-.202.466-.313.74-.313v-2zm-2.165.91A3.104 3.104 0 0 0 .026 24h2c0-.293.116-.572.315-.774L.916 21.823zM.026 24v9.391h2V24h-2zm.288 10.093 1.027 1.043 1.426-1.403L1.74 32.69.314 34.093zm1.74 1.342h7.19v-2h-7.19v2z" class="path-iwbepvw4r" fill="#fff"/></svg>