<svg width="60" height="60" viewBox="0 0 44 43" fill="none" xmlns="http://www.w3.org/2000/svg" data-prefix="i5fgyigy2"><path d="M8.428 40.51a1 1 0 0 0 .417-1.956l-.417 1.956zm-3.013-1.665.208-.978a1.028 1.028 0 0 0-.062-.011l-.146.989zm-2.37-1.688-.918.398a.89.89 0 0 0 .073.136l.845-.534zm-.815-1.882.918-.397v-.002l-.918.399zM10.91 26l.043-1h-.042v1zm4.89 4.597a1 1 0 0 0 1.571-1.237L15.8 30.597zm-9.344.331a1 1 0 0 0-1.868.714l1.868-.714zm-.071 2.617.934-.356-.934.356zm1.564 1.566-.366.93.017.007.35-.937zm1.873 1.765a1 1 0 0 0 .698-1.874l-.698 1.874zM18.7 38v1h.015l-.015-1zm-3.37 0-.997.077a1 1 0 0 0 .997.923v-1zm1.79-4v-1a1 1 0 0 0-.636.228l.636.772zm3.829 1.447.912.409-.912-.409zm-.648 1.448-.913-.409-.007.016.92.393zm.653-5.586-.903-.431-.004.008.907.423zm-.771-1.33.016-1h-.016v1zm-6.682 0v-1h-.004l.004 1zm-.77.509.905.424.002-.005-.908-.42zM8.42 39.67l.901.432.004-.007-.906-.425zM9.19 41l-.014 1h.014v-1zm6.682 0v1h.004l-.004-1zm.77-.508-.905-.425-.003.006.908.42zM17.227 20v-1a1 1 0 0 0-1 1h1zm8.591 0h1-1zm0-8v-1a1 1 0 0 0-1 1h1zM34.41 1V0a1 1 0 0 0-1 1h1zM43 1h1a1 1 0 0 0-1-1v1zM8.636 24c2.856 0 4.819-2.492 4.819-5.285h-2c0 1.94-1.303 3.285-2.819 3.285v2zm4.819-5.285v-1.43h-2v1.43h2zm0-1.43c0-2.793-1.963-5.285-4.819-5.285v2c1.516 0 2.819 1.345 2.819 3.285h2zM8.636 12c-2.856 0-4.818 2.492-4.818 5.285h2C5.818 15.345 7.12 14 8.636 14v-2zm-4.818 5.285v1.43h2v-1.43h-2zm0 1.43C3.818 21.508 5.78 24 8.636 24v-2c-1.516 0-2.818-1.346-2.818-3.285h-2zm5.027 19.84-3.222-.688-.417 1.956 3.222.688.417-1.957zm-3.284-.7c-.415-.06-.625-.123-.817-.245-.2-.127-.47-.38-.853-.986L2.2 37.69c.464.736.925 1.26 1.47 1.607.555.353 1.106.464 1.599.536l.292-1.978zM3.963 36.76l-.815-1.882-1.836.794.815 1.883 1.836-.795zm-.816-1.884C2.354 33.055 2 32.636 2 31.564H0c0 1.62.67 2.631 1.313 4.11l1.834-.798zM2 31.564c0-1.263.312-2.438.888-3.266C3.44 27.508 4.246 27 5.415 27v-2c-1.87 0-3.27.867-4.168 2.155C.377 28.405 0 30.013 0 31.564h2zM5.415 27h5.496v-2H5.415v2zm5.453 0c.842.035 1.422.128 1.879.31.43.17.803.44 1.188.926l1.568-1.242c-.578-.73-1.227-1.23-2.02-1.544-.766-.304-1.609-.41-2.53-.45l-.085 2zm3.067 1.236a1265.04 1265.04 0 0 1 1.854 2.348l.008.01.002.002v.001l.786-.618.786-.619-.002-.003a2.716 2.716 0 0 0-.008-.01l-.03-.039-.116-.146a1200.464 1200.464 0 0 0-1.712-2.168l-1.568 1.242zm-9.347 3.406.863 2.26 1.868-.714-.863-2.26-1.868.714zm.862 2.26c.205.536.463.991.85 1.365.382.37.824.594 1.283.775l.733-1.861c-.345-.136-.513-.243-.626-.353-.11-.105-.232-.275-.37-.64l-1.87.713zm2.15 2.146 2.222.828.698-1.874-2.222-.828-.698 1.874zM18.7 37h-3.37v2h3.37v-2zm-2.373.923c-.068-.887.264-1.664.66-2.258a5.03 5.03 0 0 1 .724-.853l.042-.037.006-.006-.001.001h-.001v.001L17.12 34c-.636-.772-.636-.772-.637-.771a158345811.65 158345811.65 0 0 0-.005.004l-.009.008a2.32 2.32 0 0 0-.109.096 7.039 7.039 0 0 0-1.035 1.216c-.543.813-1.106 2.036-.992 3.524l1.994-.154zM17.12 35h3.028v-2H17.12v2zm3.028 0a.184.184 0 0 1-.096-.028c-.02-.013-.022-.022-.018-.014a.09.09 0 0 1 .01.038.091.091 0 0 1-.008.044l1.826.815a2.094 2.094 0 0 0-.078-1.865c-.298-.538-.878-.99-1.636-.99v2zm-.112.039-.648 1.447 1.826.818.648-1.448-1.826-.817zm-.655 1.463a.847.847 0 0 1-.295.367l1.136 1.646c.444-.306.788-.733.999-1.227l-1.84-.786zm-.295.367a.726.726 0 0 1-.402.131l.031 2a2.726 2.726 0 0 0 1.507-.485l-1.136-1.646zm1.519-2.446 1.255-2.692-1.813-.845-1.255 2.691 1.813.846zm1.25-2.683a1.95 1.95 0 0 0 .19-.919l-1.999.078c0-.006.001-.013.005-.021l1.805.862zm.19-.919a1.95 1.95 0 0 0-.26-.902l-1.731 1.003a.05.05 0 0 1-.008-.023l1.999-.078zm-.26-.902a1.896 1.896 0 0 0-.665-.676l-1.03 1.715a.103.103 0 0 1-.036-.036l1.73-1.003zm-.665-.676a1.847 1.847 0 0 0-.921-.264l-.032 2a.153.153 0 0 1-.076-.021l1.029-1.715zm-.937-.264H13.5v2h6.682v-2zm-6.686 0a1.831 1.831 0 0 0-1.002.304l1.102 1.67a.168.168 0 0 1-.092.026l-.008-2zm-1.002.304a1.889 1.889 0 0 0-.673.785l1.816.839a.113.113 0 0 1-.041.045l-1.102-1.67zm-.67.78-4.31 9.183 1.81.85 4.31-9.184-1.81-.85zm-4.307 9.176a1.955 1.955 0 0 0-.19.92l2-.078a.043.043 0 0 1-.006.022l-1.804-.864zm-.19.92c.013.316.102.626.262.902l1.73-1.004c.006.01.007.018.007.024l-1.998.078zm.262.902c.16.276.387.51.665.676l1.027-1.716a.11.11 0 0 1 .038.036l-1.73 1.004zm.665.676c.278.166.595.258.922.263l.029-2c.03 0 .056.009.076.021l-1.027 1.716zM9.19 42h6.682v-2H9.191v2zm6.686 0a1.83 1.83 0 0 0 1-.303l-1.1-1.67a.17.17 0 0 1 .092-.027l.008 2zm1-.303c.296-.195.527-.469.673-.785l-1.815-.84a.114.114 0 0 1 .042-.045l1.1 1.67zm.67-.779 1.173-2.492-1.81-.852-1.172 2.493 1.81.851zM3.818 38.724V43h2v-4.276h-2zM13.364 41v2h2v-2h-2zm4.863-17v-4h-2v4h2zm-1-3h8.591v-2h-8.59v2zm7.591-1v23h2V20h-2zm2 0v-8h-2v8h2zm-1-7h8.591v-2h-8.59v2zm7.591-1v31h2V12h-2zm2 0V1h-2v11h2zm-1-10H43V0h-8.59v2zM42 1v42h2V1h-2z" class="path-is3ddlogd" fill="#fff"/></svg>