<svg width="100" height="100" fill="none" xmlns="http://www.w3.org/2000/svg"><g clip-path="url('#clip0_1401_60')"><path d="M26.067 84.182h-8.333c-.992 0-1.984.794-1.984 1.984s.793 1.984 1.984 1.984h64.682c.992 0 1.984-.793 1.984-1.984 0-1.19-.793-1.984-1.984-1.984h-8.333V70.293c-.198-8.929-6.35-15.873-13.889-15.873H39.956c-7.54 0-13.69 6.944-13.889 15.873v13.889Zm13.889-25.794h20.238c5.357 0 9.722 5.357 9.92 11.905v13.889h-7.142V69.301c0-.992-.794-1.984-1.984-1.984-.992 0-1.984.794-1.984 1.984v14.881H41.147V69.301c0-.992-.794-1.984-1.985-1.984-.992 0-1.984.794-1.984 1.984v14.881h-7.143v-13.69c.199-6.747 4.564-12.104 9.921-12.104Zm44.643-25.793c-.794 1.389-1.19 2.777-1.19 4.365l-8.73 2.182c-.993.199-1.787 1.39-1.39 2.381.199.992.992 1.587 1.984 1.587h.397l8.73-2.182c.596 1.389 1.786 2.58 2.977 3.373 1.389.794 2.777 1.19 4.365 1.19.595 0 1.389 0 1.984-.198 4.563-.992 7.341-5.556 6.349-10.119-.992-4.564-5.556-7.341-10.119-6.35a8.925 8.925 0 0 0-5.357 3.77Zm3.373 2.182c.595-.992 1.587-1.785 2.778-1.984.397 0 .595-.198.992-.198.793 0 1.587.198 2.38.595.993.595 1.786 1.587 1.985 2.778.595 2.38-.992 4.762-3.373 5.357-1.19.198-2.381 0-3.373-.595-.992-.596-1.786-1.588-1.984-2.778-.199-.992 0-2.183.595-3.175Zm-16.865-6.944c.397.198.595.198.992.198.595 0 1.389-.397 1.587-.992l4.762-7.738c.794.198 1.786.397 2.58.397 2.777 0 5.555-1.39 7.142-3.968 2.381-3.969 1.19-9.127-2.778-11.508-3.968-2.381-9.126-1.19-11.507 2.777-1.985 3.373-1.39 7.54 1.19 10.318l-4.762 7.738c-.397.992-.198 2.183.794 2.778Zm6.349-18.651c.794-1.389 2.183-2.183 3.77-2.183.793 0 1.587.199 2.38.596.993.595 1.787 1.587 1.985 2.777.198 1.19 0 2.381-.595 3.373-1.39 2.183-3.969 2.778-6.151 1.39-.992-.596-1.786-1.588-1.984-2.778-.199-.992 0-2.183.595-3.175Zm18.452 47.619c-1.984-1.19-4.166-1.587-6.349-.992-1.587.397-2.976 1.19-3.968 2.183l-7.738-4.762c-.992-.596-2.183-.199-2.778.595-.595.992-.198 2.182.595 2.778l7.738 4.761c-.396 1.39-.595 2.977-.198 4.564.595 2.183 1.786 3.968 3.77 5.159 1.389.793 2.976 1.19 4.365 1.19 2.778 0 5.555-1.389 7.143-3.968 2.778-3.968 1.389-9.127-2.58-11.508Zm-.595 9.524c-1.389 2.182-3.968 2.778-6.15 1.389-.993-.596-1.786-1.588-1.985-2.778-.198-1.19 0-2.381.596-3.373.595-.992 1.587-1.786 2.777-1.984.397 0 .794-.199.992-.199.794 0 1.588.199 2.381.596 1.984 1.389 2.778 4.166 1.39 6.349ZM6.623 45.293c.595.199 1.389.199 1.984.199 1.587 0 2.976-.397 4.365-1.191 1.389-.794 2.38-1.984 2.976-3.373l8.73 2.183h.397c.992 0 1.786-.596 1.984-1.588.199-.992-.397-2.182-1.389-2.38l-8.73-2.183c0-1.588-.397-2.977-1.19-4.365-1.19-1.985-2.976-3.175-5.16-3.77-2.38-.397-4.563 0-6.547.992C2.06 31.007.87 32.793.273 34.976c-.595 2.182-.198 4.365.993 6.349 1.19 2.182 3.174 3.373 5.357 3.968Zm-2.381-9.325c.198-1.19.992-2.183 1.984-2.778.793-.397 1.587-.595 2.38-.595.398 0 .794 0 .993.198 1.19.199 2.182.992 2.778 1.984.595.992.793 2.183.595 3.373-.198 1.19-.992 2.183-1.984 2.778-.992.595-2.183.794-3.373.595-1.19-.198-2.183-.992-2.778-1.984-.794-1.19-.992-2.38-.595-3.571Zm14.682-16.072c.794 0 1.786-.198 2.58-.397l4.761 7.739c.397.595.993.992 1.588.992.397 0 .793 0 .992-.199.992-.595 1.19-1.786.595-2.778l-4.762-7.738c.992-.992 1.786-2.38 2.183-3.968.793-2.38.595-4.563-.596-6.548-2.38-3.968-7.54-5.158-11.507-2.777-3.969 2.38-5.16 7.54-2.778 11.508 1.389 2.777 4.166 4.166 6.944 4.166ZM16.742 7.595c2.182-1.39 4.762-.596 6.15 1.389.596.992.794 2.182.596 3.373-.199 1.19-.992 2.182-1.984 2.777-1.19.794-2.381.992-3.572.596-1.19-.199-2.182-.992-2.778-1.985-1.19-1.984-.595-4.761 1.588-6.15ZM13.17 71.087c1.984-1.19 3.175-2.977 3.77-5.159.397-1.587.198-3.175-.198-4.563l7.738-4.762c.992-.596 1.19-1.786.595-2.778s-1.786-1.19-2.778-.595l-7.738 4.762c-2.778-2.58-6.944-3.373-10.317-1.191-3.969 2.381-5.159 7.54-2.778 11.508 1.587 2.58 4.365 3.968 7.143 3.968a9.216 9.216 0 0 0 4.563-1.19Zm-8.333-4.762c-1.389-2.183-.595-4.762 1.389-6.151.793-.397 1.587-.595 2.38-.595 1.588 0 2.977.793 3.77 2.182.596.992.794 2.183.596 3.373-.198 1.19-.992 2.183-1.984 2.778-2.183 1.19-4.762.397-6.151-1.587ZM93.726 95.69c0 .992-.794 1.984-1.984 1.984H8.408c-.992 0-1.984-.794-1.984-1.984 0-.992.794-1.984 1.984-1.984h83.135c1.19 0 2.183.793 2.183 1.984Zm-43.65-46.032c6.745 0 12.3-5.555 12.3-12.301 0-6.747-5.555-12.302-12.3-12.302-6.747 0-12.303 5.555-12.303 12.302 0 6.746 5.556 12.301 12.302 12.301Zm0-20.635c4.563 0 8.332 3.77 8.332 8.334 0 4.563-3.77 8.333-8.333 8.333-4.563 0-8.333-3.77-8.333-8.333 0-4.564 3.77-8.334 8.333-8.334Z" fill="#111"/></g><defs><clipPath id="clip0_1401_60"><path fill="#fff" d="M0 0h100v100H0z"/></clipPath></defs></svg>