<svg width="100" height="100" fill="none" xmlns="http://www.w3.org/2000/svg"><path d="M50 19.727c5.243 0 9.363-4.308 9.363-9.364C59.363 5.12 55.056 1 50 1c-5.056 0-9.363 4.307-9.363 9.363 0 5.244 4.12 9.364 9.363 9.364Zm0-14.982c3.184 0 5.618 2.622 5.618 5.618 0 3.184-2.622 5.618-5.618 5.618-3.184 0-5.618-2.621-5.618-5.618 0-3.183 2.434-5.618 5.618-5.618Zm50 34.645c0 .936-.75 1.872-1.873 1.872H85.393c.188.562.375 1.124.375 1.686a5.435 5.435 0 0 1-5.43 5.43h-16.48c-.75 0-1.311-.187-1.873-.374v46.442h27.528c.936 0 1.873.749 1.873 1.872 0 .937-.75 1.873-1.873 1.873H10.487c-.936 0-1.873-.75-1.873-1.873 0-.936.75-1.872 1.873-1.872h27.528V48.004c-.562.187-1.31.374-1.873.374h-16.48a5.435 5.435 0 0 1-5.43-5.43c0-.562.188-1.124.375-1.686H1.873C.936 41.262 0 40.513 0 39.39c0-1.123.75-1.872 1.873-1.872h1.872V13.734c0-1.123.75-1.873 1.873-1.873 1.124 0 1.873.75 1.873 1.873v23.783h2.996V18.416c0-.937.749-1.873 1.873-1.873.936 0 1.872.75 1.872 1.873v19.1h2.997v-13.67c0-.936.748-1.872 1.872-1.872.937 0 1.873.749 1.873 1.872v13.67h2.996V21.226c0-.937.75-1.873 1.873-1.873.936 0 1.872.75 1.872 1.873v16.292H30.9v-6.18c0-3.933 3.183-6.929 6.929-6.929h4.12c.936 0 1.872.75 1.872 1.873 0 .936-.749 1.873-1.872 1.873h-4.12c-1.873 0-3.184 1.498-3.184 3.183v6.742c0 1.685-1.498 3.183-3.183 3.183H19.663c-.936 0-1.686.75-1.686 1.686 0 .936.75 1.685 1.686 1.685h16.48c1.123 0 1.872-.936 1.872-1.873v-5.056c0-.936.749-1.873 1.873-1.873 1.123 0 1.872.75 1.872 1.873v56.929h6.367V63.734c0-.936.75-1.873 1.873-1.873.936 0 1.873.75 1.873 1.873v30.712h6.367v-56.93c0-.935.749-1.872 1.872-1.872.937 0 1.873.75 1.873 1.873v5.056c0 1.124.936 1.873 1.873 1.873h16.48c.935 0 1.684-.75 1.684-1.686 0-.936-.749-1.685-1.685-1.685H68.54c-1.685 0-3.183-1.498-3.183-3.184V31.15c0-1.873-1.498-3.184-3.184-3.184h-4.12c-.936 0-1.872-.749-1.872-1.872 0-.937.749-1.873 1.872-1.873h4.12c3.933 0 6.93 3.183 6.93 6.929v6.18H72.283V23.66c0-.937.75-1.873 1.873-1.873.937 0 1.873.749 1.873 1.872v13.67h2.996V26.095c0-.937.75-1.873 1.873-1.873.936 0 1.873.749 1.873 1.873V37.33h2.996V19.727c0-.937.749-1.873 1.872-1.873.937 0 1.873.749 1.873 1.873V37.33h2.996v-20.6c0-.936.75-1.872 1.873-1.872.936 0 1.873.749 1.873 1.872v20.787h1.872c1.124 0 1.873.936 1.873 1.872Zm-6.929 19.1c0 .937-.749 1.873-1.873 1.873H71.724c-.936 0-1.873-.749-1.873-1.872 0-.937.75-1.873 1.873-1.873h19.475c.937 0 1.873.749 1.873 1.873Zm0 8.802c0 .936-.749 1.873-1.873 1.873H71.724c-.936 0-1.873-.75-1.873-1.873 0-1.124.75-1.873 1.873-1.873h19.475c.937 0 1.873.75 1.873 1.873Zm0 8.614c0 .937-.749 1.873-1.873 1.873H71.724c-.936 0-1.873-.749-1.873-1.873 0-.936.75-1.872 1.873-1.872h19.475c.937 0 1.873.936 1.873 1.872ZM6.93 58.491c0-.937.749-1.873 1.873-1.873h19.475c.936 0 1.873.749 1.873 1.873 0 .936-.75 1.872-1.873 1.872H8.801c-.936 0-1.872-.936-1.872-1.872Zm0 8.801c0-.936.749-1.873 1.873-1.873h19.475c.936 0 1.873.75 1.873 1.873 0 1.124-.75 1.873-1.873 1.873H8.801c-.936 0-1.872-.937-1.872-1.873ZM8.802 77.78c-.937 0-1.873-.749-1.873-1.873 0-.936.749-1.872 1.873-1.872h19.475c.936 0 1.873.749 1.873 1.872 0 .937-.75 1.873-1.873 1.873H8.801Z" fill="#111"/></svg>