<svg width="100" height="100" fill="none" xmlns="http://www.w3.org/2000/svg"><path d="M47.187 31.54c.371.37.557.556.928.742l.557.557c.185.185.37.185.556.37 1.484.743 3.154 1.3 4.824 1.3s3.34-.557 4.824-1.3c.185-.185.37-.185.742-.37.185-.186.37-.371.556-.371.371-.186.557-.557.928-.743 2.226.186 4.082 1.3 5.566 2.969.556.742 1.855.927 2.597.37.742-.556.928-1.854.371-2.596-1.67-2.041-3.896-3.526-6.308-4.082.371-1.113.557-2.226.557-3.34 0-5.38-4.267-9.647-9.648-9.647-5.38 0-9.647 4.267-9.647 9.647 0 1.114.185 2.412.557 3.34-5.01 1.299-8.72 5.937-8.72 11.317v5.566c0 .928.742 1.855 1.855 1.855h18.924c.928 0 1.855-.742 1.855-1.855 0-.928-.742-1.855-1.855-1.855H39.952v-3.71c0-4.268 3.154-7.793 7.235-8.164Zm6.865-12.802c3.34 0 5.937 2.598 5.937 5.937 0 1.485-.557 2.783-1.484 3.896l-.557.557-.371.371c-.185.186-.371.371-.742.371-.186 0-.186.186-.371.186-.186.185-.557.185-.742.37-.186 0-.186 0-.371.186-.371 0-.928.186-1.3.186-.37 0-.927 0-1.298-.186-.185 0-.185 0-.37-.185-.186 0-.557-.186-.743-.371-.185 0-.185-.186-.371-.186-.185-.185-.371-.185-.742-.37-.186 0-.186-.186-.371-.372l-.557-.557c-.927-1.113-1.484-2.411-1.484-3.896 0-3.154 2.597-5.937 5.937-5.937ZM15.648 45.27c0-.928.742-1.855 1.855-1.855h11.503c.927 0 1.855.742 1.855 1.855 0 .928-.742 1.855-1.855 1.855H17.503c-.928 0-1.855-.927-1.855-1.855Zm0-10.76c0-.928.742-1.856 1.855-1.856h11.503c.927 0 1.855.742 1.855 1.855 0 .928-.742 1.856-1.855 1.856H17.503c-.928 0-1.855-.742-1.855-1.856ZM54.422 54.73c0 .928-.742 1.855-1.855 1.855H17.503c-.928 0-1.855-.742-1.855-1.855 0-.928.742-1.855 1.855-1.855h35.065c1.113 0 1.855.927 1.855 1.855Zm6.122 8.534c0 .928-.742 1.856-1.855 1.856H17.874c-.928 0-1.855-.742-1.855-1.856 0-.927.742-1.855 1.855-1.855H58.69c.928 0 1.855.928 1.855 1.855ZM67.41 71.8c0 1.113-.742 1.855-1.855 1.855H18.059c-.927 0-1.855-.742-1.855-1.855 0-.928.742-1.856 1.855-1.856h47.496c1.113 0 1.855.928 1.855 1.856ZM48.3 82.19h19.11c.928 0 1.855.741 1.855 1.855 0 .927-.742 1.855-1.855 1.855H48.3c-.927 0-1.855-.742-1.855-1.856 0-.927.928-1.855 1.856-1.855ZM15.649 23.932c0-.927.742-1.855 1.855-1.855h11.503c.927 0 1.855.742 1.855 1.855 0 .928-.742 1.855-1.855 1.855H17.503c-.928 0-1.855-.927-1.855-1.855Zm70.13 40.446c-.928 0-1.856.742-1.856 1.855v23.005h-2.968V72.913c0-.928-.742-1.855-1.856-1.855-.927 0-1.855.742-1.855 1.855v23.191h-49.35V79.777c0-.927-.743-1.855-1.856-1.855H9.711V10.575h67.532v16.327c0 .927.742 1.855 1.855 1.855.928 0 1.856-.742 1.856-1.855V8.72c0-.928-.742-1.855-1.856-1.855H16.39V3.71h67.532v32.096c0 .928.742 1.855 1.855 1.855.928 0 1.856-.742 1.856-1.855V1.855C87.633.928 86.89 0 85.777 0H14.534c-1.113 0-1.855.742-1.855 1.855v5.01H7.855C6.928 6.865 6 7.607 6 8.72V79.963c0 .185 0 .371.186.556v.186c0 .186.185.371.37.557l18.182 18.181c.186.186.372.371.557.371.185 0 .371.186.557.186h53.06c.928 0 1.856-.742 1.856-1.855v-5.01h5.01c.927 0 1.855-.742 1.855-1.855V66.234c0-1.113-.742-1.855-1.856-1.855ZM24.181 81.633v11.874L12.308 81.633h11.874ZM92.27 49.35h-2.969c-.927-6.494-6.122-11.689-12.616-12.616v-2.969c0-.927-.742-1.855-1.855-1.855-.928 0-1.855.742-1.855 1.855v2.969c-6.494.927-11.688 6.122-12.616 12.616h-2.412c-.928 0-1.855.742-1.855 1.855s.742 1.855 1.855 1.855h2.597c.928 6.68 6.308 12.06 12.987 12.616v2.969c0 .927.743 1.855 1.856 1.855s1.855-.742 1.855-1.855v-2.969c6.308-.928 11.317-6.122 12.245-12.616h2.968c.928 0 1.856-.742 1.856-1.855s-.928-1.855-2.041-1.855ZM77.058 61.967v-.928c0-.928-.743-1.855-1.856-1.855-.927 0-1.855.742-1.855 1.855v1.113c-4.638-.556-8.349-4.267-9.276-8.905h1.298c.928 0 1.856-.742 1.856-1.855 0-1.114-.743-1.856-1.856-1.856H64.07c.743-4.453 4.268-8.163 8.906-8.905v.927c0 .928.742 1.856 1.855 1.856.928 0 1.855-.742 1.855-1.856v-.927c4.453.742 8.164 4.267 8.906 8.905h-.928c-.927 0-1.855.742-1.855 1.855 0 1.114.742 1.856 1.855 1.856h.928c-.742 4.267-4.082 7.792-8.534 8.72Z" fill="#111"/></svg>