<svg width="32" height="32" viewBox="0 0 32 32" fill="none" xmlns="http://www.w3.org/2000/svg">
<path d="M19.6267 11.7198L13.9067 17.4532L11.7067 15.2532C11.5872 15.1136 11.4401 15.0002 11.2747 14.9202C11.1092 14.8402 10.9291 14.7952 10.7454 14.7881C10.5618 14.781 10.3787 14.812 10.2076 14.879C10.0365 14.946 9.8811 15.0477 9.75116 15.1776C9.62122 15.3076 9.51954 15.463 9.45251 15.6341C9.38548 15.8052 9.35454 15.9883 9.36163 16.1719C9.36872 16.3555 9.41369 16.5357 9.49373 16.7011C9.57376 16.8666 9.68712 17.0136 9.82669 17.1332L12.96 20.2798C13.0846 20.4034 13.2324 20.5012 13.3948 20.5675C13.5573 20.6339 13.7312 20.6675 13.9067 20.6665C14.2565 20.665 14.5917 20.5262 14.84 20.2798L21.5067 13.6132C21.6317 13.4892 21.7309 13.3418 21.7985 13.1793C21.8662 13.0168 21.9011 12.8425 21.9011 12.6665C21.9011 12.4905 21.8662 12.3162 21.7985 12.1537C21.7309 11.9913 21.6317 11.8438 21.5067 11.7198C21.2569 11.4715 20.9189 11.3321 20.5667 11.3321C20.2144 11.3321 19.8765 11.4715 19.6267 11.7198ZM16 2.6665C13.3629 2.6665 10.7851 3.44849 8.59242 4.91358C6.39977 6.37866 4.6908 8.46104 3.68163 10.8974C2.67246 13.3337 2.40842 16.0146 2.92289 18.601C3.43736 21.1875 4.70724 23.5632 6.57194 25.4279C8.43664 27.2926 10.8124 28.5625 13.3988 29.077C15.9852 29.5914 18.6661 29.3274 21.1025 28.3182C23.5388 27.3091 25.6212 25.6001 27.0863 23.4074C28.5514 21.2148 29.3334 18.6369 29.3334 15.9998C29.3334 14.2489 28.9885 12.5151 28.3184 10.8974C27.6484 9.27972 26.6662 7.80986 25.4281 6.57175C24.19 5.33363 22.7201 4.35151 21.1025 3.68144C19.4848 3.01138 17.751 2.6665 16 2.6665ZM16 26.6665C13.8904 26.6665 11.8281 26.0409 10.0739 24.8688C8.31982 23.6968 6.95265 22.0309 6.14531 20.0818C5.33798 18.1327 5.12674 15.988 5.53832 13.9189C5.94989 11.8497 6.96579 9.94913 8.45755 8.45737C9.94931 6.96561 11.8499 5.9497 13.9191 5.53813C15.9882 5.12655 18.1329 5.33779 20.082 6.14512C22.0311 6.95246 23.697 8.31963 24.869 10.0738C26.0411 11.8279 26.6667 13.8902 26.6667 15.9998C26.6667 18.8288 25.5429 21.5419 23.5425 23.5423C21.5421 25.5427 18.829 26.6665 16 26.6665Z" fill="#E53E44"/>
</svg>
