<svg width="60" height="60" viewBox="0 0 40 48" fill="none" xmlns="http://www.w3.org/2000/svg">
<path d="M19.5126 24.9584V17.2917H25.3587L13.6664 1.95837L1.97412 17.2917H7.82027V34.5417M7.82027 38.375V40.2917M7.82027 44.125V46.0417M29.2562 33.5834C29.2562 35.1712 26.2025 36.4584 22.4357 36.4584C18.6688 36.4584 15.6151 35.1712 15.6151 33.5834M29.2562 33.5834C29.2562 31.9956 26.2025 30.7084 22.4357 30.7084C18.6688 30.7084 15.6151 31.9956 15.6151 33.5834M29.2562 33.5834V38.375M15.6151 33.5834V38.375M29.2562 38.375C29.2562 39.9623 26.2028 41.25 22.4357 41.25C18.6685 41.25 15.6151 39.9623 15.6151 38.375M29.2562 38.375V43.1667C29.2562 44.7539 26.2028 46.0417 22.4357 46.0417C18.6685 46.0417 15.6151 44.7539 15.6151 43.1667V38.375M38.0254 28.7917V33.5834M38.0254 28.7917V24M38.0254 28.7917C38.0254 30.2927 35.2948 31.5254 31.8139 31.6547M38.0254 33.5834C38.0254 35.0317 35.4848 36.2296 32.1792 36.4296M38.0254 33.5834V38.375C38.0254 39.8233 35.4848 41.0212 32.1792 41.2213M38.0254 24C38.0254 25.5879 34.9718 26.875 31.2049 26.875C27.438 26.875 24.3844 25.5879 24.3844 24M38.0254 24C38.0254 22.4122 34.9718 21.125 31.2049 21.125C27.438 21.125 24.3844 22.4122 24.3844 24M24.3844 24V27.8334" stroke="#FFFFFF" stroke-width="2" stroke-linecap="round" stroke-linejoin="round"></path>
</svg>