<svg width="20" height="20" fill="none" xmlns="http://www.w3.org/2000/svg"><path d="M18.333 7.5H1.667m0-1v7c0 1.4 0 2.1.272 2.635a2.5 2.5 0 0 0 1.093 1.092c.534.273 1.235.273 2.635.273h8.666c1.4 0 2.1 0 2.635-.273a2.5 2.5 0 0 0 1.093-1.092c.272-.535.272-1.235.272-2.635v-7c0-1.4 0-2.1-.272-2.635a2.5 2.5 0 0 0-1.093-1.093c-.535-.272-1.235-.272-2.635-.272H5.667c-1.4 0-2.1 0-2.635.272a2.5 2.5 0 0 0-1.093 1.093C1.667 4.4 1.667 5.1 1.667 6.5z" stroke="#D0D5DD" stroke-linecap="round" stroke-linejoin="round"/></svg>