<svg width="60" height="60" viewBox="0 0 38 48" fill="none" xmlns="http://www.w3.org/2000/svg" data-prefix="iw7arr39z"><path d="M25.168 25.712a1 1 0 1 0-.477 1.943l.477-1.943zM28 27.438l-.239.97a1 1 0 0 0 1.239-.97h-1zm0-4.896h1a1 1 0 0 0-.3-.715l-.7.715zm-4-3.917h-1a1 1 0 0 0 .3.715l.7-.715zm0-9.792h1a.982.982 0 0 0-.006-.11l-.994.11zM20 1.98l.59-.807a1 1 0 0 0-1.18 0l.59.807zm-4 6.854l-.994-.11a1.006 1.006 0 0 0-.006.11h1zm0 9.792l.7.715a1 1 0 0 0 .3-.715h-1zm-4 3.917l-.7-.715a1 1 0 0 0-.3.715h1zm0 4.895h-1a1 1 0 0 0 1.237.972L12 27.438zm3.287.228a1 1 0 0 0-.474-1.943l.474 1.943zM8 37.229l1 .002v-.002H8zm25 5.386h-1 1zM17 25.479v13.709h2V25.479h-2zm4-2.937v11.75h2v-11.75h-2zm3.691 5.113l3.07.754.477-1.943-3.07-.754-.477 1.943zM29 27.437v-4.895h-2v4.895h2zm-.3-5.61l-4-3.917-1.4 1.43 4 3.916 1.4-1.429zM25 18.625V8.833h-2v9.792h2zm-.006-9.903a10.755 10.755 0 0 0-1.402-4.227l-1.728 1.008a8.756 8.756 0 0 1 1.142 3.441l1.988-.222zm-1.402-4.227a10.97 10.97 0 0 0-3.002-3.323l-1.18 1.614a8.97 8.97 0 0 1 2.454 2.717l1.728-1.008zM19.41 1.172a10.968 10.968 0 0 0-3.002 3.323l1.728 1.008a8.969 8.969 0 0 1 2.454-2.717l-1.18-1.614zm-3.002 3.323a10.756 10.756 0 0 0-1.402 4.227l1.988.222a8.758 8.758 0 0 1 1.142-3.441l-1.728-1.008zM15 8.833v9.792h2V8.833h-2zm.3 9.077l-4 3.917 1.4 1.43 4-3.918-1.4-1.429zM11 22.542v4.895h2v-4.895h-2zm1.237 5.867l3.05-.744-.474-1.943-3.05.744.474 1.943zM19 8.833v1.959h2V8.833h-2zM3.246 46.728a5.718 5.718 0 0 1 .065-3.546l-1.89-.654a7.718 7.718 0 0 0-.087 4.785l1.912-.585zm.065-3.546a5.866 5.866 0 0 1 2.16-2.865l-1.157-1.632a7.866 7.866 0 0 0-2.893 3.843l1.89.654zm2.16-2.865A6.1 6.1 0 0 1 8.942 39.2l-.017-2a8.1 8.1 0 0 0-4.612 1.485l1.156 1.632zM8.942 39.2c1.25-.01 2.471.36 3.493 1.058l1.128-1.652A8.105 8.105 0 0 0 8.926 37.2l.017 2zm.132-1.107A4.901 4.901 0 0 1 9 37.231l-2-.004c0 .407.034.813.105 1.214l1.97-.348zM9 37.23c0-1.286.521-2.524 1.457-3.44l-1.4-1.429A6.813 6.813 0 0 0 7 37.23h2zm1.457-3.44A5.065 5.065 0 0 1 14 32.354v-2c-1.85 0-3.628.72-4.942 2.006l1.399 1.43zM27 37.435v-7.06h-2v7.06h2zm2.248 7.736a4.04 4.04 0 0 1 2.055-1.01l-.34-1.97a6.04 6.04 0 0 0-3.071 1.51l1.356 1.47zm2.055-1.01a4.098 4.098 0 0 1 2.29.263l.778-1.842a6.098 6.098 0 0 0-3.407-.391l.34 1.97zm2.29.263c.72.304 1.328.807 1.755 1.443l1.66-1.115a5.975 5.975 0 0 0-2.637-2.17l-.778 1.842zm1.755 1.443c.427.635.652 1.376.652 2.133h2a5.822 5.822 0 0 0-.991-3.248l-1.66 1.114zm-11.861-5.239a4.45 4.45 0 0 1 2.123-1.995l-.823-1.823a6.451 6.451 0 0 0-3.074 2.895l1.774.923zm2.123-1.995a4.608 4.608 0 0 1 2.946-.283l.459-1.947a6.608 6.608 0 0 0-4.228.407l.823 1.823zm2.946-.283a4.514 4.514 0 0 1 2.485 1.557l1.558-1.254a6.514 6.514 0 0 0-3.584-2.25l-.459 1.947zm2.485 1.557c.623.774.96 1.728.959 2.707h2c0-1.439-.494-2.834-1.4-3.961l-1.559 1.254zM32 42.615V43.203h2v-.001-.001-.001-.002-.002-.001-.001-.001-.001-.002-.002-.001-.001-.001-.002-.002-.002-.001-.001-.002-.002-.002-.001-.001-.002-.002-.001-.001-.001-.001-.002-.002-.001-.001-.001-.001-.002-.002-.001-.001-.001-.002-.002-.002-.001-.001-.002-.002-.002-.001-.001-.002-.002-.001-.001-.001-.001-.002-.002-.001-.001-.001-.002-.002-.002-.001-.001-.002-.002-.002-.001-.001-.002-.002-.001-.001-.001-.001-.002-.002-.001-.001-.001-.001-.002-.002-.001-.001-.001-.002-.002-.002-.001-.001-.002-.002-.002-.001-.001-.002-.002-.001-.001-.001-.001-.002-.002-.001-.001-.001-.002-.002-.002-.001-.001-.002-.002-.002-.001-.001-.002-.002-.001-.001-.001-.001-.002-.002-.001-.001-.001-.001-.002-.002-.001-.001-.001-.002V43v-.002-.001-.001-.002-.002-.002-.001-.001-.002-.002-.001-.001-.001-.001-.002-.002-.001-.001-.001-.001-.002-.002-.001-.001-.001-.002-.002-.002-.001-.001-.002-.002-.001-.001-.001-.001-.002-.002-.001-.001-.001-.001-.002-.002-.001-.001-.001-.002-.002-.002-.001-.001-.002-.002-.002-.001-.001-.002-.002-.001-.001-.001-.001-.002-.002-.001-.001-.001-.001-.002-.002-.001-.001-.001-.002-.002-.002-.001-.001-.002-.002-.002-.001-.001-.002-.002-.001-.001-.001-.001-.002-.002-.001-.001-.001-.002-.002-.002-.001-.001-.002-.002-.002-.001-.001-.002-.002-.001-.001-.001-.001-.002-.002-.001-.001-.001-.001-.002-.002-.001-.001-.001-.002-.002-.002-.001-.001-.002-.002-.002-.001-.001-.002-.002-.001-.001-.001-.001-.002-.002-.001-.001-.001-.002-.002-.002-.001-.001-.002-.002-.002-.001-.001-.002-.002-.001-.001-.001-.001-.002-.002-.001-.001-.001-.001-.002-.002-.001-.001-.001-.002-.002-.002-.001-.001-.002-.002-.002-.001-.001-.002-.002-.001-.001-.001-.001-.002-.002-.001-.001-.001-.001-.002-.002-.001-.001-.001-.002-.002-.002-.001-.001-.002-.002-.001-.001-.001-.001-.002-.002-.001-.001-.001-.001-.002-.002-.001-.001-.001-.002-.002-.002-.001-.001-.002-.002-.002-.001-.001-.002-.002-.001-.001-.001-.001-.002-.002-.001-.001-.001-.001-.002-.002-.001-.001-.001-.002-.002-.002-.001-.001-.002-.002-.002-.001-.001-.002-.002-.001-.001-.001-.001-.002-.002-.001-.001-.001-.002h-2z" class="path-ivmkslabt" fill="#ffffff"></path></svg>