<svg width="60" height="60" viewBox="0 0 38 48" fill="none" xmlns="http://www.w3.org/2000/svg">
  <path d="M15.0009 21.9971C14.4437 21.2542 14.1045 20.3707 14.0211 19.4458C13.9377 18.5209 14.1135 17.591 14.5287 16.7604C14.944 15.9298 15.5823 15.2312 16.3722 14.743C17.1621 14.2548 18.0723 13.9962 19.0009 13.9962C19.9294 13.9962 20.8396 14.2548 21.6295 14.743C22.4194 15.2312 23.0577 15.9298 23.473 16.7604C23.8883 17.591 24.064 18.5209 23.9807 19.4458C23.8973 20.3707 23.558 21.2542 23.0009 21.9971M34.0008 47C23.0009 44.9998 22.0009 35.9987 22.0009 33.9985V29.998H26.0009L19.0009 21.9971L12.0009 29.998H16.0009V33.9985C16.0009 35.9987 15.0009 44.9998 4.00088 47M10.0934 27.0389C8.53781 25.3158 7.51535 23.1784 7.1499 20.8858C6.78445 18.5932 7.0917 16.2439 8.03441 14.1224C8.97712 12.0009 10.5148 10.1984 12.4612 8.93337C14.4075 7.66831 16.679 6.99499 19.0002 6.99499C21.3215 6.99499 23.5929 7.66831 25.5393 8.93337C27.4856 10.1984 29.0234 12.0009 29.9661 14.1224C30.9088 16.2439 31.216 18.5932 30.8506 20.8858C30.4851 23.1784 29.4627 25.3158 27.9071 27.0389M11.9359 35.5599C8.1219 33.9324 4.98675 31.0377 3.06035 27.3653C1.13395 23.6928 0.53444 19.4678 1.36316 15.4043C2.19187 11.3409 4.39798 7.68816 7.60861 5.06362C10.8192 2.43908 14.8375 1.00367 18.9841 1.00001C23.1308 0.996345 27.1515 2.42466 30.3668 5.04352C33.582 7.66239 35.7946 11.3112 36.6305 15.3732C37.4664 19.4352 36.8743 23.6613 34.9544 27.3371C33.0345 31.013 29.9044 33.9131 26.0934 35.5474" stroke="#FFFFFF" stroke-width="2" stroke-linejoin="round"></path>
</svg>