<svg width="100" height="100" viewBox="0 0 100 100" fill="none" xmlns="http://www.w3.org/2000/svg">
<path d="M50 19.7266C55.2434 19.7266 59.3633 15.4195 59.3633 10.3633C59.3633 5.11985 55.0562 1 50 1C44.9438 1 40.6367 5.30712 40.6367 10.3633C40.6367 15.6067 44.7566 19.7266 50 19.7266ZM50 4.74532C53.1835 4.74532 55.618 7.36704 55.618 10.3633C55.618 13.5468 52.9963 15.9813 50 15.9813C46.8165 15.9813 44.382 13.3596 44.382 10.3633C44.382 7.17977 46.8165 4.74532 50 4.74532ZM100 39.3895C100 40.3258 99.2509 41.2622 98.1273 41.2622H85.3932C85.5805 41.824 85.7678 42.3858 85.7678 42.9476C85.7678 45.9438 83.3333 48.3783 80.3371 48.3783H63.8577C63.1086 48.3783 62.5468 48.191 61.985 48.0037V94.4457H89.5131C90.4494 94.4457 91.3858 95.1948 91.3858 96.3184C91.3858 97.2547 90.6367 98.191 89.5131 98.191H60.1124H50H39.8876H10.4869C9.55056 98.191 8.61423 97.4419 8.61423 96.3184C8.61423 95.382 9.3633 94.4457 10.4869 94.4457H38.015V48.0037C37.4532 48.191 36.7041 48.3783 36.1423 48.3783H19.6629C16.6667 48.3783 14.2322 45.9438 14.2322 42.9476C14.2322 42.3858 14.4195 41.824 14.6067 41.2622H1.87266C0.93633 41.2622 0 40.5131 0 39.3895C0 38.2659 0.749064 37.5169 1.87266 37.5169H3.74532V13.7341C3.74532 12.6105 4.49438 11.8614 5.61798 11.8614C6.74157 11.8614 7.49064 12.6105 7.49064 13.7341V37.5169H10.4869V18.4157C10.4869 17.4794 11.236 16.5431 12.3595 16.5431C13.2959 16.5431 14.2322 17.2921 14.2322 18.4157V37.5169H17.2285V23.8464C17.2285 22.9101 17.9775 21.9738 19.1011 21.9738C20.0375 21.9738 20.9738 22.7228 20.9738 23.8464V37.5169H23.97V21.2247C23.97 20.2884 24.7191 19.3521 25.8427 19.3521C26.779 19.3521 27.7154 20.1011 27.7154 21.2247V37.5169H29.0262H30.8989V31.3371C30.8989 27.4045 34.0824 24.4082 37.8277 24.4082H41.9476C42.8839 24.4082 43.8202 25.1573 43.8202 26.2809C43.8202 27.2172 43.0712 28.1536 41.9476 28.1536H37.8277C35.9551 28.1536 34.6442 29.6517 34.6442 31.3371V38.0786C34.6442 39.764 33.1461 41.2622 31.4607 41.2622H29.0262H19.6629C18.7266 41.2622 17.9775 42.0112 17.9775 42.9476C17.9775 43.8839 18.7266 44.633 19.6629 44.633H36.1423C37.2659 44.633 38.015 43.6966 38.015 42.7603V37.7041C38.015 36.7678 38.764 35.8315 39.8876 35.8315C41.0112 35.8315 41.7603 36.5805 41.7603 37.7041V94.633H48.1273V63.7341C48.1273 62.7977 48.8764 61.8614 50 61.8614C50.9363 61.8614 51.8727 62.6105 51.8727 63.7341V94.4457H58.2397V37.5169C58.2397 36.5805 58.9888 35.6442 60.1124 35.6442C61.0487 35.6442 61.985 36.3933 61.985 37.5169V42.573C61.985 43.6966 62.9213 44.4457 63.8577 44.4457H80.3371C81.2734 44.4457 82.0225 43.6966 82.0225 42.7603C82.0225 41.824 81.2734 41.0749 80.3371 41.0749H70.9738H68.5393C66.8539 41.0749 65.3558 39.5768 65.3558 37.8914V31.1498C65.3558 29.2772 63.8577 27.9663 62.1723 27.9663H58.0524C57.1161 27.9663 56.1798 27.2172 56.1798 26.0936C56.1798 25.1573 56.9288 24.221 58.0524 24.221H62.1723C66.1049 24.221 69.1011 27.4045 69.1011 31.1498V37.3296H70.9738H72.2846V23.6592C72.2846 22.7228 73.0337 21.7865 74.1573 21.7865C75.0936 21.7865 76.03 22.5356 76.03 23.6592V37.3296H79.0262V26.0936C79.0262 25.1573 79.7753 24.221 80.8989 24.221C81.8352 24.221 82.7715 24.97 82.7715 26.0936V37.3296H85.7678V19.7266C85.7678 18.7903 86.5168 17.8539 87.6404 17.8539C88.5768 17.8539 89.5131 18.603 89.5131 19.7266V37.3296H92.5094V16.7303C92.5094 15.794 93.2584 14.8577 94.382 14.8577C95.3184 14.8577 96.2547 15.6067 96.2547 16.7303V37.5169H98.1273C99.2509 37.5169 100 38.4532 100 39.3895ZM93.0712 58.4906C93.0712 59.427 92.3221 60.3633 91.1985 60.3633H71.7228C70.7865 60.3633 69.8502 59.6142 69.8502 58.4906C69.8502 57.5543 70.5992 56.618 71.7228 56.618H91.1985C92.1348 56.618 93.0712 57.367 93.0712 58.4906ZM93.0712 67.2921C93.0712 68.2285 92.3221 69.1648 91.1985 69.1648H71.7228C70.7865 69.1648 69.8502 68.4157 69.8502 67.2921C69.8502 66.1685 70.5992 65.4195 71.7228 65.4195H91.1985C92.1348 65.4195 93.0712 66.1685 93.0712 67.2921ZM93.0712 75.9064C93.0712 76.8427 92.3221 77.779 91.1985 77.779H71.7228C70.7865 77.779 69.8502 77.03 69.8502 75.9064C69.8502 74.97 70.5992 74.0337 71.7228 74.0337H91.1985C92.1348 74.0337 93.0712 74.97 93.0712 75.9064ZM6.92884 58.4906C6.92884 57.5543 7.6779 56.618 8.8015 56.618H28.2772C29.2135 56.618 30.1498 57.367 30.1498 58.4906C30.1498 59.427 29.4007 60.3633 28.2772 60.3633H8.8015C7.86517 60.3633 6.92884 59.427 6.92884 58.4906ZM6.92884 67.2921C6.92884 66.3558 7.6779 65.4195 8.8015 65.4195H28.2772C29.2135 65.4195 30.1498 66.1685 30.1498 67.2921C30.1498 68.4157 29.4007 69.1648 28.2772 69.1648H8.8015C7.86517 69.1648 6.92884 68.2285 6.92884 67.2921ZM8.8015 77.779C7.86517 77.779 6.92884 77.03 6.92884 75.9064C6.92884 74.97 7.6779 74.0337 8.8015 74.0337H28.2772C29.2135 74.0337 30.1498 74.7828 30.1498 75.9064C30.1498 76.8427 29.4007 77.779 28.2772 77.779H8.8015Z" fill="#111111"/>
</svg>
