<svg width="100" height="100" viewBox="0 0 100 100" fill="none" xmlns="http://www.w3.org/2000/svg">
<path d="M47.1874 31.5399C47.5584 31.9109 47.744 32.0965 48.115 32.282C48.3006 32.4675 48.4861 32.6531 48.6716 32.8386C48.8571 33.0241 49.0427 33.0241 49.2282 33.2096C50.7124 33.9518 52.3822 34.5084 54.0519 34.5084C55.7217 34.5084 57.3915 33.9518 58.8757 33.2096C59.0612 33.0241 59.2468 33.0241 59.6178 32.8386C59.8033 32.6531 59.9889 32.4675 60.1744 32.4675C60.5455 32.282 60.731 31.9109 61.102 31.7254C63.3284 31.9109 65.1837 33.0241 66.6679 34.6939C67.2245 35.436 68.5232 35.6215 69.2653 35.0649C70.0074 34.5083 70.1929 33.2096 69.6364 32.4675C67.9666 30.4267 65.7403 28.9425 63.3284 28.3859C63.6994 27.2727 63.885 26.1596 63.885 25.0464C63.885 19.666 59.6178 15.3989 54.2375 15.3989C48.8571 15.3989 44.59 19.666 44.59 25.0464C44.59 26.1596 44.7755 27.4583 45.1466 28.3859C40.1373 29.6846 36.4267 34.3228 36.4267 39.7032V45.269C36.4267 46.1967 37.1688 47.1243 38.282 47.1243H57.2059C58.1336 47.1243 59.0612 46.3822 59.0612 45.269C59.0612 44.3414 58.3191 43.4137 57.2059 43.4137H39.9518V39.7032C39.9518 35.436 43.1058 31.9109 47.1874 31.5399ZM54.0519 18.7384C57.3915 18.7384 59.9889 21.3358 59.9889 24.6753C59.9889 26.1596 59.4323 27.4583 58.5046 28.5714C58.3191 28.757 58.1336 28.9425 57.9481 29.128C57.7625 29.3135 57.7625 29.3135 57.577 29.4991C57.3915 29.6846 57.2059 29.8701 56.8349 29.8701C56.6493 29.8701 56.6494 30.0557 56.4638 30.0557C56.2783 30.2412 55.9072 30.2412 55.7217 30.4267C55.5362 30.4267 55.5362 30.4267 55.3507 30.6122C54.9796 30.6122 54.423 30.7978 54.0519 30.7978C53.6809 30.7978 53.1243 30.7978 52.7532 30.6122C52.5677 30.6122 52.5677 30.6122 52.3822 30.4267C52.1967 30.4267 51.8256 30.2412 51.6401 30.0557C51.4545 30.0557 51.4545 29.8701 51.269 29.8701C51.0835 29.6846 50.898 29.6846 50.5269 29.4991C50.3414 29.4991 50.3414 29.3135 50.1558 29.128C49.9703 28.9425 49.7848 28.757 49.5993 28.5714C48.6716 27.4583 48.115 26.1596 48.115 24.6753C48.115 21.5213 50.7124 18.7384 54.0519 18.7384ZM15.6475 45.269C15.6475 44.3414 16.3896 43.4137 17.5028 43.4137H29.0056C29.9332 43.4137 30.8609 44.1558 30.8609 45.269C30.8609 46.1967 30.1187 47.1243 29.0056 47.1243H17.5028C16.5751 47.1243 15.6475 46.1967 15.6475 45.269ZM15.6475 34.5084C15.6475 33.5807 16.3896 32.6531 17.5028 32.6531H29.0056C29.9332 32.6531 30.8609 33.3952 30.8609 34.5084C30.8609 35.436 30.1187 36.3636 29.0056 36.3636H17.5028C16.5751 36.3636 15.6475 35.6215 15.6475 34.5084ZM54.423 54.731C54.423 55.6586 53.6809 56.5863 52.5677 56.5863H17.5028C16.5751 56.5863 15.6475 55.8442 15.6475 54.731C15.6475 53.8033 16.3896 52.8757 17.5028 52.8757H52.5677C53.6809 52.8757 54.423 53.8033 54.423 54.731ZM60.5455 63.2653C60.5455 64.1929 59.8033 65.1206 58.6902 65.1206H17.8738C16.9462 65.1206 16.0186 64.3785 16.0186 63.2653C16.0186 62.3377 16.7607 61.41 17.8738 61.41H58.6902C59.6178 61.41 60.5455 62.3377 60.5455 63.2653ZM67.41 71.7996C67.41 72.9128 66.6679 73.6549 65.5547 73.6549H18.0594C17.1317 73.6549 16.2041 72.9128 16.2041 71.7996C16.2041 70.872 16.9462 69.9443 18.0594 69.9443H65.5547C66.6679 69.9443 67.41 70.872 67.41 71.7996ZM48.3006 82.1892H67.41C68.3377 82.1892 69.2653 82.9314 69.2653 84.0445C69.2653 84.9722 68.5232 85.8998 67.41 85.8998H48.3006C47.3729 85.8998 46.4453 85.1577 46.4453 84.0445C46.4453 83.1169 47.3729 82.1892 48.3006 82.1892ZM15.6475 23.9332C15.6475 23.0056 16.3896 22.0779 17.5028 22.0779H29.0056C29.9332 22.0779 30.8609 22.82 30.8609 23.9332C30.8609 24.8609 30.1187 25.7885 29.0056 25.7885H17.5028C16.5751 25.7885 15.6475 24.8609 15.6475 23.9332ZM85.7774 64.3785C84.8497 64.3785 83.9221 65.1206 83.9221 66.2338V89.2393H80.9536V72.9128C80.9536 71.9852 80.2115 71.0575 79.0983 71.0575C78.1707 71.0575 77.243 71.7996 77.243 72.9128V91.0946V96.1039H27.8924V79.7774C27.8924 78.8497 27.1503 77.9221 26.0371 77.9221H9.71058V10.5751H77.243V26.9017C77.243 27.8293 77.9852 28.757 79.0983 28.757C80.026 28.757 80.9536 28.0148 80.9536 26.9017V8.71985C80.9536 7.79221 80.2115 6.86456 79.0983 6.86456H16.3896V3.71058H83.9221V35.807C83.9221 36.7347 84.6642 37.6623 85.7774 37.6623C86.705 37.6623 87.6327 36.9202 87.6327 35.807V1.85529C87.6327 0.927644 86.8905 0 85.7774 0H14.5343C13.4212 0 12.679 0.742115 12.679 1.85529V6.86456H7.85529C6.92764 6.86456 6 7.60668 6 8.71985V79.7774C6 79.7774 6 79.7774 6 79.9629C6 80.1484 6 80.334 6.18553 80.5195V80.705C6.18553 80.8905 6.37106 81.0761 6.55659 81.2616L24.7384 99.4434C24.9239 99.6289 25.1095 99.8145 25.295 99.8145C25.4805 99.8145 25.666 100 25.8516 100H78.9128C79.8404 100 80.7681 99.2579 80.7681 98.1447V93.1354H85.7774C86.705 93.1354 87.6327 92.3933 87.6327 91.2802V66.2338C87.6327 65.1206 86.8905 64.3785 85.7774 64.3785ZM24.1818 81.6327V93.5065L12.308 81.6327H24.1818ZM92.2709 49.3507H89.3024C88.3748 42.8571 83.18 37.6623 76.6865 36.7347V33.7662C76.6865 32.8386 75.9443 31.9109 74.8312 31.9109C73.9035 31.9109 72.9759 32.6531 72.9759 33.7662V36.7347C66.4824 37.6623 61.2876 42.8571 60.3599 49.3507H57.9481C57.0204 49.3507 56.0928 50.0928 56.0928 51.2059C56.0928 52.3191 56.8349 53.0612 57.9481 53.0612H60.5455C61.4731 59.7403 66.8534 65.1206 73.5325 65.6772V68.6456C73.5325 69.5733 74.2746 70.5009 75.3878 70.5009C76.5009 70.5009 77.243 69.7588 77.243 68.6456V65.6772C83.551 64.7495 88.5603 59.5547 89.4879 53.0612H92.4564C93.384 53.0612 94.3117 52.3191 94.3117 51.2059C94.3117 50.0928 93.384 49.3507 92.2709 49.3507ZM77.0575 61.9666V61.039C77.0575 60.1113 76.3154 59.1837 75.2022 59.1837C74.2746 59.1837 73.3469 59.9258 73.3469 61.039V62.1521C68.7087 61.5955 64.9981 57.885 64.0705 53.2468H65.3692C66.2968 53.2468 67.2245 52.5046 67.2245 51.3915C67.2245 50.2783 66.4824 49.5362 65.3692 49.5362H64.0705C64.8126 45.0835 68.3377 41.3729 72.9759 40.6308V41.5584C72.9759 42.4861 73.718 43.4137 74.8312 43.4137C75.7588 43.4137 76.6865 42.6716 76.6865 41.5584V40.6308C81.1391 41.3729 84.8497 44.898 85.5918 49.5362H84.6642C83.7365 49.5362 82.8089 50.2783 82.8089 51.3915C82.8089 52.5046 83.551 53.2468 84.6642 53.2468H85.5918C84.8497 57.5139 81.5102 61.039 77.0575 61.9666Z" fill="#111111"/>
</svg>
