<svg width="100" height="100" viewBox="0 0 100 100" fill="none" xmlns="http://www.w3.org/2000/svg">
<g clip-path="url(#clip0_1401_60)">
<path d="M26.0671 84.182H17.7338C16.7417 84.182 15.7497 84.9756 15.7497 86.1661C15.7497 87.3566 16.5433 88.1502 17.7338 88.1502H28.0513H72.0989H82.4163C83.4084 88.1502 84.4005 87.3566 84.4005 86.1661C84.4005 84.9756 83.6068 84.182 82.4163 84.182H74.083V70.2931C73.8846 61.3645 67.7338 54.42 60.1941 54.42H39.956C32.4163 54.42 26.2655 61.3645 26.0671 70.2931V84.182ZM39.956 58.3883H60.1941C65.5512 58.3883 69.9163 63.7454 70.1147 70.2931V84.182H62.9719V69.301C62.9719 68.3089 62.1782 67.3169 60.9878 67.3169C59.9957 67.3169 59.0036 68.1105 59.0036 69.301V84.182H41.1465V69.301C41.1465 68.3089 40.3528 67.3169 39.1624 67.3169C38.1703 67.3169 37.1782 68.1105 37.1782 69.301V84.182H30.0354V70.4915C30.2338 63.7454 34.5989 58.3883 39.956 58.3883ZM84.5989 32.5947C83.8052 33.9835 83.4084 35.3724 83.4084 36.9597L74.6782 39.1423C73.6862 39.3407 72.8925 40.5312 73.2894 41.5232C73.4878 42.5153 74.2814 43.1105 75.2735 43.1105C75.4719 43.1105 75.6703 43.1105 75.6703 43.1105L84.4005 40.928C84.9957 42.3169 86.1862 43.5073 87.3766 44.301C88.7655 45.0947 90.1544 45.4915 91.7417 45.4915C92.337 45.4915 93.1306 45.4915 93.7259 45.2931C98.2894 44.301 101.067 39.7375 100.075 35.174C99.083 30.6105 94.5195 27.8327 89.956 28.8248C87.5751 29.42 85.7893 30.8089 84.5989 32.5947ZM87.9719 34.7772C88.5671 33.7851 89.5592 32.9915 90.7497 32.7931C91.1465 32.7931 91.3449 32.5947 91.7417 32.5947C92.5354 32.5947 93.329 32.7931 94.1227 33.1899C95.1147 33.7851 95.9084 34.7772 96.1068 35.9677C96.702 38.3486 95.1147 40.7296 92.7338 41.3248C91.5433 41.5232 90.3528 41.3248 89.3608 40.7296C88.3687 40.1343 87.5751 39.1423 87.3766 37.9518C87.1782 36.9597 87.3766 35.7693 87.9719 34.7772ZM71.1068 27.8327C71.5036 28.0312 71.702 28.0312 72.0989 28.0312C72.6941 28.0312 73.4878 27.6343 73.6862 27.0391L78.4481 19.301C79.2417 19.4994 80.2338 19.6978 81.0274 19.6978C83.8052 19.6978 86.583 18.3089 88.1703 15.7296C90.5513 11.7613 89.3608 6.60259 85.3925 4.22164C81.4243 1.84068 76.2655 3.03116 73.8846 6.99941C71.9005 10.3724 72.4957 14.5391 75.0751 17.3169L70.3132 25.055C69.9163 26.047 70.1147 27.2375 71.1068 27.8327ZM77.456 9.18195C78.2497 7.79306 79.6386 6.99941 81.2259 6.99941C82.0195 6.99941 82.8132 7.19783 83.6068 7.59465C84.5989 8.18989 85.3925 9.18195 85.5909 10.3724C85.7893 11.5629 85.5909 12.7534 84.9957 13.7454C83.6068 15.928 81.0274 16.5232 78.8449 15.1343C77.8528 14.5391 77.0592 13.547 76.8608 12.3566C76.6624 11.3645 76.8608 10.174 77.456 9.18195ZM95.9084 56.801C93.9243 55.6105 91.7417 55.2137 89.5592 55.8089C87.9719 56.2058 86.583 56.9994 85.5909 57.9915L77.8528 53.2296C76.8608 52.6343 75.6703 53.0312 75.0751 53.8248C74.4798 54.8169 74.8766 56.0074 75.6703 56.6026L83.4084 61.3645C83.0116 62.7534 82.8132 64.3407 83.21 65.928C83.8052 68.1105 84.9957 69.8962 86.9798 71.0867C88.3687 71.8804 89.956 72.2772 91.3449 72.2772C94.1227 72.2772 96.9005 70.8883 98.4878 68.3089C101.266 64.3407 99.8766 59.182 95.9084 56.801ZM95.3132 66.3248C93.9243 68.5073 91.3449 69.1026 89.1624 67.7137C88.1703 67.1185 87.3767 66.1264 87.1782 64.9359C86.9798 63.7454 87.1782 62.555 87.7735 61.5629C88.3687 60.5708 89.3608 59.7772 90.5512 59.5788C90.9481 59.5788 91.3449 59.3804 91.5433 59.3804C92.337 59.3804 93.1306 59.5788 93.9243 59.9756C95.9084 61.3645 96.702 64.1423 95.3132 66.3248ZM6.62268 45.2931C7.21792 45.4915 8.01157 45.4915 8.6068 45.4915C10.1941 45.4915 11.583 45.0947 12.9719 44.301C14.3608 43.5073 15.3528 42.3169 15.9481 40.928L24.6782 43.1105C24.8766 43.1105 25.0751 43.1105 25.0751 43.1105C26.0671 43.1105 26.8608 42.5153 27.0592 41.5232C27.2576 40.5312 26.6624 39.3407 25.6703 39.1423L16.9401 36.9597C16.9401 35.3724 16.5433 33.9835 15.7497 32.5947C14.5592 30.6105 12.7735 29.42 10.5909 28.8248C8.20998 28.428 6.02744 28.8248 4.04331 29.8169C2.05919 31.0074 0.868709 32.7931 0.273471 34.9756C-0.321767 37.1581 0.0750582 39.3407 1.26553 41.3248C2.45601 43.5073 4.44014 44.6978 6.62268 45.2931ZM4.24172 35.9677C4.44014 34.7772 5.23379 33.7851 6.22585 33.1899C7.0195 32.7931 7.81315 32.5947 8.6068 32.5947C9.00363 32.5947 9.40046 32.5947 9.59887 32.7931C10.7893 32.9915 11.7814 33.7851 12.3766 34.7772C12.9719 35.7693 13.1703 36.9597 12.9719 38.1502C12.7735 39.3407 11.9798 40.3327 10.9878 40.928C9.99569 41.5232 8.80522 41.7216 7.61474 41.5232C6.42426 41.3248 5.4322 40.5312 4.83696 39.5391C4.04331 38.3486 3.8449 37.1581 4.24172 35.9677ZM18.9243 19.8962C19.7179 19.8962 20.71 19.6978 21.5036 19.4994L26.2655 27.2375C26.6624 27.8327 27.2576 28.2296 27.8528 28.2296C28.2497 28.2296 28.6465 28.2296 28.8449 28.0312C29.837 27.4359 30.0354 26.2454 29.4401 25.2534L24.6782 17.5153C25.6703 16.5232 26.4639 15.1343 26.8608 13.547C27.6544 11.1661 27.456 8.98354 26.2655 6.99941C23.8846 3.03116 18.7259 1.84068 14.7576 4.22164C10.7893 6.60259 9.59887 11.7613 11.9798 15.7296C13.3687 18.5073 16.1465 19.8962 18.9243 19.8962ZM16.7417 7.59465C18.9243 6.20576 21.5036 6.99941 22.8925 8.98354C23.4878 9.9756 23.6862 11.1661 23.4878 12.3566C23.2893 13.547 22.4957 14.5391 21.5036 15.1343C20.3132 15.928 19.1227 16.1264 17.9322 15.7296C16.7417 15.5312 15.7497 14.7375 15.1544 13.7454C13.9639 11.7613 14.5592 8.98354 16.7417 7.59465ZM13.1703 71.0867C15.1544 69.8962 16.3449 68.1105 16.9401 65.928C17.337 64.3407 17.1385 62.7534 16.7417 61.3645L24.4798 56.6026C25.4719 56.0074 25.6703 54.8169 25.0751 53.8248C24.4798 52.8327 23.2893 52.6343 22.2973 53.2296L14.5592 57.9915C11.7814 55.4121 7.61474 54.6185 4.24172 56.801C0.273471 59.182 -0.917005 64.3407 1.46395 68.3089C3.05125 70.8883 5.82903 72.2772 8.6068 72.2772C10.1941 72.2772 11.7814 71.8804 13.1703 71.0867ZM4.83696 66.3248C3.44807 64.1423 4.24172 61.5629 6.22585 60.174C7.0195 59.7772 7.81315 59.5788 8.6068 59.5788C10.1941 59.5788 11.583 60.3724 12.3766 61.7613C12.9719 62.7534 13.1703 63.9439 12.9719 65.1343C12.7735 66.3248 11.9798 67.3169 10.9878 67.9121C8.80522 69.1026 6.22585 68.3089 4.83696 66.3248ZM93.7259 95.6899C93.7259 96.682 92.9322 97.674 91.7417 97.674H8.40839C7.41633 97.674 6.42426 96.8804 6.42426 95.6899C6.42426 94.6978 7.21792 93.7058 8.40839 93.7058H91.5433C92.7338 93.7058 93.7259 94.4994 93.7259 95.6899ZM50.0751 49.6581C56.8211 49.6581 62.3766 44.1026 62.3766 37.3566C62.3766 30.6105 56.8211 25.055 50.0751 25.055C43.329 25.055 37.7735 30.6105 37.7735 37.3566C37.7735 44.1026 43.329 49.6581 50.0751 49.6581ZM50.0751 29.0232C54.6385 29.0232 58.4084 32.7931 58.4084 37.3566C58.4084 41.92 54.6385 45.6899 50.0751 45.6899C45.5116 45.6899 41.7417 41.92 41.7417 37.3566C41.7417 32.7931 45.5116 29.0232 50.0751 29.0232Z" fill="#111111"/>
</g>
<defs>
<clipPath id="clip0_1401_60">
<rect width="100" height="100" fill="white"/>
</clipPath>
</defs>
</svg>
